<svg width="230" height="470" viewBox="0 0 230 470" fill="none" xmlns="http://www.w3.org/2000/svg" className="hero">
<g clip-path="url(#clip0)">
<path d="M178.555 441.046H56.5607C52.1152 441.046 47.7131 440.039 43.606 438.083C39.4988 436.127 35.767 433.26 32.6235 429.646C29.48 426.032 26.9865 421.741 25.2852 417.019C23.584 412.296 22.7084 407.235 22.7084 402.124V38.9216C22.7186 28.6026 26.2884 18.7095 32.6348 11.4128C38.9811 4.1161 47.5857 0.0116817 56.5607 0H178.555C187.53 0.0116497 196.135 4.11605 202.481 11.4127C208.827 18.7094 212.397 28.6025 212.407 38.9216V104.522H214.509V152.856H212.407V402.124C212.407 412.447 208.841 422.346 202.492 429.646C196.144 436.945 187.534 441.045 178.555 441.046V441.046ZM56.5607 1.20871C47.8644 1.22 39.527 5.19694 33.3777 12.267C27.2285 19.3371 23.7695 28.923 23.7597 38.9216V402.124C23.7597 407.076 24.608 411.981 26.2564 416.556C27.9048 421.132 30.3209 425.289 33.3667 428.791C36.4126 432.293 40.0286 435.071 44.0082 436.966C47.9878 438.861 52.2531 439.837 56.5606 439.837H178.555C187.254 439.837 195.597 435.864 201.749 428.791C207.9 421.719 211.356 412.126 211.356 402.124V151.647H213.458V105.73H211.356V38.9216C211.346 28.923 207.887 19.3371 201.738 12.267C195.589 5.19694 187.251 1.22 178.555 1.20871H56.5607Z" fill="#3F3D56"/>
<path d="M179.899 431.078H57.3197C50.5817 431.069 44.1219 427.987 39.3574 422.509C34.5928 417.031 31.9127 409.604 31.9049 401.857V39.189C31.9127 31.442 34.5928 24.0148 39.3573 18.5368C44.1219 13.0588 50.5817 9.9773 57.3197 9.96834H72.9716L72.677 10.8005C71.9788 12.7732 71.7129 14.913 71.9028 17.0316C72.0926 19.1502 72.7323 21.1828 73.7657 22.9504C74.799 24.718 76.1944 26.1666 77.8289 27.1688C79.4635 28.1709 81.2872 28.6959 83.1396 28.6975H153.029C154.881 28.6958 156.705 28.1708 158.339 27.1686C159.974 26.1665 161.369 24.7179 162.402 22.9502C163.436 21.1826 164.075 19.1501 164.265 17.0315C164.455 14.913 164.189 12.7732 163.491 10.8005L163.196 9.96834H179.899C186.637 9.97734 193.097 13.0588 197.862 18.5368C202.626 24.0148 205.306 31.442 205.314 39.189V401.857C205.306 409.604 202.626 417.031 197.862 422.509C193.097 427.987 186.637 431.069 179.899 431.078V431.078ZM57.3197 11.177C50.8604 11.1856 44.6678 14.1396 40.1003 19.391C35.5329 24.6424 32.9636 31.7624 32.9562 39.189V401.857C32.9637 409.284 35.533 416.404 40.1004 421.655C44.6678 426.906 50.8604 429.86 57.3197 429.869H179.899C186.359 429.86 192.551 426.906 197.119 421.655C201.686 416.404 204.255 409.284 204.263 401.857V39.189C204.255 31.7624 201.686 24.6425 197.119 19.3911C192.551 14.1397 186.359 11.1857 179.899 11.177H164.733C165.357 13.3127 165.53 15.5883 165.238 17.816C164.946 20.0437 164.198 22.1596 163.054 23.9891C161.911 25.8187 160.406 27.3094 158.662 28.3382C156.919 29.367 154.988 29.9045 153.029 29.9062H83.1392C81.1798 29.9045 79.2488 29.3671 77.5055 28.3383C75.7623 27.3095 74.2569 25.8188 73.1135 23.9893C71.9701 22.1597 71.2215 20.0438 70.9295 17.8161C70.6375 15.5884 70.8105 13.3128 71.4342 11.177H57.3197Z" fill="#CCCCCC"/>
<path d="M218.797 236.162H11.1031C8.1594 236.158 5.3372 234.812 3.25568 232.419C1.17416 230.025 0.00331258 226.781 0 223.396V146.801C0.00331258 143.417 1.17416 140.172 3.25568 137.779C5.3372 135.385 8.1594 134.039 11.1031 134.035H218.797C221.741 134.039 224.563 135.385 226.644 137.779C228.726 140.172 229.897 143.417 229.9 146.801V223.396C229.897 226.781 228.726 230.025 226.644 232.419C224.563 234.812 221.741 236.158 218.797 236.162V236.162Z" fill="white"/>
<path d="M218.797 236.162H11.1031C8.1594 236.158 5.3372 234.812 3.25568 232.419C1.17416 230.025 0.00331258 226.781 0 223.396V146.801C0.00331258 143.417 1.17416 140.172 3.25568 137.779C5.3372 135.385 8.1594 134.039 11.1031 134.035H218.797C221.741 134.039 224.563 135.385 226.644 137.779C228.726 140.172 229.897 143.417 229.9 146.801V223.396C229.897 226.781 228.726 230.025 226.644 232.419C224.563 234.812 221.741 236.158 218.797 236.162V236.162ZM11.1031 135.537C8.50573 135.541 6.01557 136.729 4.17894 138.84C2.34231 140.952 1.30919 143.815 1.30624 146.801V223.396C1.30919 226.382 2.34231 229.245 4.17894 231.357C6.01557 233.469 8.50573 234.657 11.1031 234.66H218.797C221.394 234.657 223.884 233.469 225.721 231.357C227.558 229.245 228.591 226.382 228.594 223.396V146.801C228.591 143.815 227.558 140.952 225.721 138.84C223.884 136.729 221.394 135.541 218.797 135.537H11.1031Z" fill="#3F3D56"/>
<path d="M142.186 180.969H69.689C68.3033 180.969 66.9743 180.336 65.9944 179.209C65.0145 178.083 64.464 176.555 64.464 174.961C64.464 173.368 65.0145 171.84 65.9944 170.713C66.9743 169.587 68.3033 168.954 69.689 168.954H142.186C143.572 168.954 144.901 169.587 145.881 170.713C146.86 171.84 147.411 173.368 147.411 174.961C147.411 176.555 146.86 178.083 145.881 179.209C144.901 180.336 143.572 180.969 142.186 180.969V180.969Z" fill="#D11F3D"/>
<path d="M209.458 201.244H69.689C68.3033 201.244 66.9743 200.611 65.9944 199.484C65.0145 198.358 64.464 196.83 64.464 195.236C64.464 193.643 65.0145 192.115 65.9944 190.988C66.9743 189.862 68.3033 189.229 69.689 189.229H209.458C210.844 189.229 212.173 189.862 213.152 190.988C214.132 192.115 214.683 193.643 214.683 195.236C214.683 196.83 214.132 198.358 213.152 199.484C212.173 200.611 210.844 201.244 209.458 201.244Z" fill="#D11F3D"/>
<path d="M34.8111 207.627C45.6324 207.627 54.4048 197.541 54.4048 185.099C54.4048 172.657 45.6324 162.571 34.8111 162.571C23.9897 162.571 15.2173 172.657 15.2173 185.099C15.2173 197.541 23.9897 207.627 34.8111 207.627Z" fill="#D11F3D"/>
<path d="M209.45 225.649H191.163C189.777 225.649 188.448 225.016 187.468 223.889C186.488 222.763 185.938 221.235 185.938 219.641C185.938 218.048 186.488 216.52 187.468 215.393C188.448 214.267 189.777 213.634 191.163 213.634H209.45C210.136 213.634 210.816 213.789 211.45 214.091C212.083 214.393 212.659 214.836 213.145 215.393C213.63 215.951 214.015 216.614 214.277 217.342C214.54 218.071 214.675 218.853 214.675 219.641C214.675 220.43 214.54 221.212 214.277 221.94C214.015 222.669 213.63 223.332 213.145 223.889C212.659 224.447 212.083 224.89 211.45 225.192C210.816 225.494 210.136 225.649 209.45 225.649V225.649Z" fill="white"/>
<path d="M209.45 225.649H191.163C189.777 225.649 188.448 225.016 187.468 223.889C186.488 222.763 185.938 221.235 185.938 219.641C185.938 218.048 186.488 216.52 187.468 215.393C188.448 214.267 189.777 213.634 191.163 213.634H209.45C210.136 213.634 210.816 213.789 211.45 214.091C212.083 214.393 212.659 214.836 213.145 215.393C213.63 215.951 214.015 216.614 214.277 217.342C214.54 218.071 214.675 218.853 214.675 219.641C214.675 220.43 214.54 221.212 214.277 221.94C214.015 222.669 213.63 223.332 213.145 223.889C212.659 224.447 212.083 224.89 211.45 225.192C210.816 225.494 210.136 225.649 209.45 225.649V225.649Z" fill="#CCCCCC"/>
<path d="M177.991 114.398H62.4219C60.7839 114.396 59.2135 113.647 58.0552 112.315C56.897 110.983 56.2455 109.178 56.2436 107.295V64.6742C56.2455 62.7909 56.897 60.9853 58.0552 59.6536C59.2135 58.3219 60.7838 57.5729 62.4218 57.5708H177.991C179.629 57.5729 181.199 58.3219 182.357 59.6536C183.516 60.9853 184.167 62.7909 184.169 64.6742V107.295C184.167 109.178 183.516 110.983 182.357 112.315C181.199 113.647 179.629 114.396 177.991 114.398V114.398ZM62.4219 58.4064C60.9766 58.4083 59.5909 59.0693 58.569 60.2443C57.547 61.4193 56.9721 63.0124 56.9705 64.6741V107.295C56.9721 108.956 57.547 110.549 58.569 111.724C59.5909 112.899 60.9766 113.56 62.4219 113.562H177.991C179.436 113.56 180.822 112.899 181.844 111.724C182.866 110.549 183.441 108.956 183.442 107.295V64.6741C183.441 63.0124 182.866 61.4193 181.844 60.2443C180.822 59.0693 179.436 58.4083 177.991 58.4064H62.4219Z" fill="#CCCCCC"/>
<path d="M135.361 83.6862H95.0214C94.251 83.685 93.5125 83.3323 92.9681 82.7055C92.4237 82.0788 92.1179 81.2292 92.1179 80.3434C92.1179 79.4576 92.4237 78.6081 92.9681 77.9813C93.5125 77.3546 94.251 77.0018 95.0214 77.0006H135.361C136.132 77.0018 136.87 77.3546 137.415 77.9813C137.959 78.6081 138.265 79.4576 138.265 80.3434C138.265 81.2292 137.959 82.0788 137.415 82.7055C136.87 83.3323 136.132 83.685 135.361 83.6862V83.6862Z" fill="#E6E6E6"/>
<path d="M172.794 94.968H95.0214C94.251 94.9668 93.5124 94.6141 92.968 93.9874C92.4237 93.3606 92.1179 92.511 92.1179 91.6253C92.1179 90.7395 92.4237 89.8899 92.968 89.2632C93.5124 88.6364 94.251 88.2837 95.0214 88.2825H172.794C173.176 88.2819 173.555 88.3679 173.908 88.5357C174.261 88.7034 174.582 88.9495 174.853 89.26C175.123 89.5705 175.338 89.9391 175.484 90.345C175.63 90.7509 175.706 91.1859 175.706 91.6253C175.706 92.0646 175.63 92.4997 175.484 92.9055C175.338 93.3114 175.123 93.6801 174.853 93.9905C174.582 94.301 174.261 94.5471 173.908 94.7149C173.555 94.8826 173.176 94.9686 172.794 94.968V94.968Z" fill="#E6E6E6"/>
<path d="M75.6139 98.5198C81.6353 98.5198 86.5167 92.9075 86.5167 85.9843C86.5167 79.0612 81.6353 73.4489 75.6139 73.4489C69.5925 73.4489 64.7112 79.0612 64.7112 85.9843C64.7112 92.9075 69.5925 98.5198 75.6139 98.5198Z" fill="#E6E6E6"/>
<path d="M172.79 108.548H162.614C162.232 108.549 161.853 108.463 161.5 108.295C161.147 108.127 160.826 107.881 160.556 107.571C160.285 107.26 160.071 106.891 159.924 106.486C159.778 106.08 159.703 105.645 159.703 105.205C159.703 104.766 159.778 104.331 159.924 103.925C160.071 103.519 160.285 103.15 160.556 102.84C160.826 102.53 161.147 102.283 161.5 102.116C161.853 101.948 162.232 101.862 162.614 101.863H172.79C173.56 101.864 174.299 102.216 174.843 102.843C175.388 103.47 175.693 104.319 175.693 105.205C175.693 106.091 175.388 106.941 174.843 107.567C174.299 108.194 173.56 108.547 172.79 108.548V108.548Z" fill="white"/>
<path d="M172.79 108.548H162.614C162.232 108.549 161.853 108.463 161.5 108.295C161.147 108.127 160.826 107.881 160.556 107.571C160.285 107.26 160.071 106.891 159.924 106.486C159.778 106.08 159.703 105.645 159.703 105.205C159.703 104.766 159.778 104.331 159.924 103.925C160.071 103.519 160.285 103.15 160.556 102.84C160.826 102.53 161.147 102.283 161.5 102.116C161.853 101.948 162.232 101.862 162.614 101.863H172.79C173.56 101.864 174.299 102.216 174.843 102.843C175.388 103.47 175.693 104.319 175.693 105.205C175.693 106.091 175.388 106.941 174.843 107.567C174.299 108.194 173.56 108.547 172.79 108.548V108.548Z" fill="#CCCCCC"/>
<path d="M177.991 311.418H62.4219C60.7839 311.416 59.2135 310.667 58.0552 309.335C56.897 308.003 56.2455 306.198 56.2436 304.314V261.694C56.2455 259.811 56.897 258.005 58.0552 256.674C59.2135 255.342 60.7838 254.593 62.4218 254.591H177.991C179.629 254.593 181.199 255.342 182.357 256.674C183.516 258.005 184.167 259.811 184.169 261.694V304.314C184.167 306.198 183.516 308.003 182.357 309.335C181.199 310.667 179.629 311.416 177.991 311.418V311.418ZM62.4219 255.426C60.9766 255.428 59.5909 256.089 58.569 257.264C57.547 258.439 56.9721 260.032 56.9705 261.694V304.314C56.9721 305.976 57.547 307.569 58.569 308.744C59.5909 309.919 60.9766 310.58 62.4219 310.582H177.991C179.436 310.58 180.822 309.919 181.844 308.744C182.866 307.569 183.441 305.976 183.442 304.314V261.694C183.441 260.032 182.866 258.439 181.844 257.264C180.822 256.089 179.436 255.428 177.991 255.426H62.4219Z" fill="#CCCCCC"/>
<path d="M135.362 280.706H95.0213C94.2503 280.706 93.5108 280.354 92.9655 279.727C92.4203 279.1 92.114 278.25 92.114 277.363C92.114 276.477 92.4203 275.627 92.9655 275C93.5108 274.373 94.2503 274.021 95.0213 274.021H135.362C136.132 274.022 136.87 274.375 137.415 275.001C137.959 275.628 138.265 276.478 138.265 277.363C138.265 278.249 137.959 279.099 137.415 279.725C136.87 280.352 136.132 280.705 135.362 280.706V280.706Z" fill="#E6E6E6"/>
<path d="M172.794 291.988H95.0214C94.251 291.987 93.5124 291.634 92.968 291.007C92.4237 290.381 92.1179 289.531 92.1179 288.645C92.1179 287.76 92.4237 286.91 92.968 286.283C93.5124 285.656 94.251 285.304 95.0214 285.302H172.794C173.565 285.302 174.305 285.655 174.85 286.282C175.395 286.908 175.702 287.759 175.702 288.645C175.702 289.532 175.395 290.382 174.85 291.009C174.305 291.636 173.565 291.988 172.794 291.988Z" fill="#E6E6E6"/>
<path d="M75.6139 295.54C81.6353 295.54 86.5167 289.927 86.5167 283.004C86.5167 276.081 81.6353 270.469 75.6139 270.469C69.5925 270.469 64.7112 276.081 64.7112 283.004C64.7112 289.927 69.5925 295.54 75.6139 295.54Z" fill="#E6E6E6"/>
<path d="M172.79 305.568H162.614C161.843 305.568 161.103 305.216 160.558 304.589C160.013 303.962 159.707 303.112 159.707 302.225C159.707 301.339 160.013 300.488 160.558 299.862C161.103 299.235 161.843 298.882 162.614 298.882H172.79C173.56 298.884 174.299 299.236 174.843 299.863C175.388 300.49 175.693 301.339 175.693 302.225C175.693 303.111 175.388 303.961 174.843 304.587C174.299 305.214 173.56 305.567 172.79 305.568V305.568Z" fill="white"/>
<path d="M172.79 305.568H162.614C161.843 305.568 161.103 305.216 160.558 304.589C160.013 303.962 159.707 303.112 159.707 302.225C159.707 301.339 160.013 300.488 160.558 299.862C161.103 299.235 161.843 298.882 162.614 298.882H172.79C173.56 298.884 174.299 299.236 174.843 299.863C175.388 300.49 175.693 301.339 175.693 302.225C175.693 303.111 175.388 303.961 174.843 304.587C174.299 305.214 173.56 305.567 172.79 305.568V305.568Z" fill="#CCCCCC"/>
<path d="M177.991 390.589H62.4219C60.7839 390.586 59.2135 389.837 58.0552 388.506C56.897 387.174 56.2455 385.368 56.2436 383.485V340.865C56.2455 338.982 56.897 337.176 58.0552 335.844C59.2135 334.513 60.7838 333.764 62.4218 333.762H177.991C179.629 333.764 181.199 334.513 182.357 335.844C183.516 337.176 184.167 338.982 184.169 340.865V383.485C184.167 385.368 183.516 387.174 182.357 388.506C181.199 389.837 179.629 390.586 177.991 390.589V390.589ZM62.4219 334.597C60.9766 334.599 59.5909 335.26 58.569 336.435C57.547 337.61 56.9721 339.203 56.9705 340.865V383.485C56.9721 385.147 57.547 386.74 58.569 387.915C59.5909 389.09 60.9766 389.751 62.4219 389.753H177.991C179.436 389.751 180.822 389.09 181.844 387.915C182.866 386.74 183.441 385.147 183.442 383.485V340.865C183.441 339.203 182.866 337.61 181.844 336.435C180.822 335.26 179.436 334.599 177.991 334.597H62.4219Z" fill="#CCCCCC"/>
<path d="M135.362 359.877H95.0213C94.2503 359.877 93.5108 359.525 92.9655 358.898C92.4203 358.271 92.114 357.421 92.114 356.534C92.114 355.647 92.4203 354.797 92.9655 354.17C93.5108 353.543 94.2503 353.191 95.0213 353.191H135.362C136.132 353.192 136.87 353.545 137.415 354.172C137.959 354.799 138.265 355.648 138.265 356.534C138.265 357.42 137.959 358.269 137.415 358.896C136.87 359.523 136.132 359.876 135.362 359.877V359.877Z" fill="#E6E6E6"/>
<path d="M172.794 371.159H95.0214C94.251 371.158 93.5124 370.805 92.968 370.178C92.4237 369.551 92.1179 368.702 92.1179 367.816C92.1179 366.93 92.4237 366.081 92.968 365.454C93.5124 364.827 94.251 364.474 95.0214 364.473H172.794C173.565 364.473 174.305 364.825 174.85 365.452C175.395 366.079 175.702 366.929 175.702 367.816C175.702 368.703 175.395 369.553 174.85 370.18C174.305 370.807 173.565 371.159 172.794 371.159Z" fill="#E6E6E6"/>
<path d="M75.6139 374.71C81.6353 374.71 86.5167 369.098 86.5167 362.175C86.5167 355.252 81.6353 349.64 75.6139 349.64C69.5925 349.64 64.7112 355.252 64.7112 362.175C64.7112 369.098 69.5925 374.71 75.6139 374.71Z" fill="#E6E6E6"/>
<path d="M172.79 384.739H162.614C161.843 384.739 161.103 384.387 160.558 383.76C160.013 383.133 159.707 382.282 159.707 381.396C159.707 380.509 160.013 379.659 160.558 379.032C161.103 378.405 161.843 378.053 162.614 378.053H172.79C173.56 378.054 174.299 378.407 174.843 379.034C175.388 379.661 175.693 380.51 175.693 381.396C175.693 382.282 175.388 383.131 174.843 383.758C174.299 384.385 173.56 384.738 172.79 384.739V384.739Z" fill="white"/>
<path d="M172.79 384.739H162.614C161.843 384.739 161.103 384.387 160.558 383.76C160.013 383.133 159.707 382.282 159.707 381.396C159.707 380.509 160.013 379.659 160.558 379.032C161.103 378.405 161.843 378.053 162.614 378.053H172.79C173.56 378.054 174.299 378.407 174.843 379.034C175.388 379.661 175.693 380.51 175.693 381.396C175.693 382.282 175.388 383.131 174.843 383.758C174.299 384.385 173.56 384.738 172.79 384.739V384.739Z" fill="#CCCCCC"/>
<path d="M105.999 462.818H112.444L115.509 434.239L105.998 434.239L105.999 462.818Z" fill="#FFB8B8"/>
<path d="M104.355 460.399L117.046 460.398H117.047C118.109 460.398 119.161 460.639 120.142 461.106C121.123 461.573 122.015 462.258 122.766 463.122C123.517 463.985 124.113 465.01 124.519 466.138C124.926 467.267 125.135 468.476 125.135 469.697V469.999L104.356 470L104.355 460.399Z" fill="#2F2E41"/>
<path d="M80.2429 462.818H86.6872L89.7527 434.239L80.2418 434.239L80.2429 462.818Z" fill="#FFB8B8"/>
<path d="M78.5989 460.399L91.2899 460.398H91.2905C92.3526 460.398 93.4042 460.639 94.3855 461.106C95.3668 461.573 96.2584 462.258 97.0094 463.122C97.7604 463.985 98.3562 465.01 98.7626 466.138C99.169 467.267 99.3782 468.476 99.3782 469.697V469.999L78.5993 470L78.5989 460.399Z" fill="#2F2E41"/>
<path d="M107.285 264.963C114.416 264.963 120.196 258.317 120.196 250.119C120.196 241.922 114.416 235.276 107.285 235.276C100.155 235.276 94.3752 241.922 94.3752 250.119C94.3752 258.317 100.155 264.963 107.285 264.963Z" fill="#FFB8B8"/>
<path d="M115.967 456.65H104.008C103.695 456.65 103.385 456.578 103.097 456.44C102.808 456.301 102.546 456.098 102.326 455.842C102.106 455.586 101.932 455.282 101.815 454.948C101.698 454.614 101.639 454.257 101.643 453.897L102.338 388.608C102.341 388.376 102.266 388.152 102.129 387.981C101.992 387.811 101.804 387.707 101.602 387.692C101.401 387.676 101.202 387.75 101.047 387.898C100.892 388.046 100.791 388.257 100.767 388.487L93.8072 454.259C93.7369 454.918 93.4594 455.525 93.0269 455.966C92.5944 456.406 92.0368 456.649 91.4591 456.65H79.3855C79.0594 456.65 78.7367 456.572 78.4379 456.422C78.139 456.272 77.8704 456.052 77.6489 455.777C77.4275 455.502 77.2579 455.177 77.1509 454.822C77.044 454.468 77.0019 454.092 77.0273 453.718L85 336.428L85.2167 336.4L123.393 331.66L118.33 454.06C118.302 454.758 118.04 455.417 117.6 455.899C117.16 456.382 116.575 456.651 115.967 456.65V456.65Z" fill="#2F2E41"/>
<path d="M85.4647 343.628C84.8514 343.627 84.2626 343.351 83.8228 342.859C83.383 342.368 83.1266 341.699 83.1078 340.994C82.8994 333.578 82.5423 307.916 86.6937 289.077C87.8267 283.93 90.3699 279.339 93.9474 275.983C97.5248 272.627 101.947 270.683 106.559 270.439V270.439C111.099 270.154 115.602 271.52 119.429 274.343C123.255 277.166 126.212 281.303 127.878 286.166C134.857 306.535 141.449 331.642 133.23 335.58C122.457 340.74 94.0573 343.041 85.6099 343.623C85.5612 343.626 85.5129 343.628 85.4647 343.628Z" fill="#D11F3D"/>
<path d="M134.807 235.117C135.01 235.357 135.229 235.578 135.462 235.778L134.107 265.709L128.47 269.027L131.714 279.463L142.189 274.704C143.036 274.319 143.751 273.63 144.227 272.738C144.703 271.847 144.915 270.802 144.831 269.76L142.087 235.808C142.985 235.037 143.658 233.971 144.016 232.75C144.374 231.529 144.4 230.212 144.091 228.974C143.782 227.735 143.153 226.635 142.286 225.818C141.42 225.001 140.358 224.506 139.241 224.4C138.124 224.294 137.006 224.582 136.035 225.225C135.064 225.867 134.286 226.834 133.805 227.998C133.323 229.161 133.161 230.465 133.34 231.737C133.52 233.009 134.031 234.188 134.807 235.117H134.807Z" fill="#FFB8B8"/>
<path d="M134.214 266.823L138.18 279.78C138.292 280.149 138.335 280.541 138.304 280.93C138.273 281.319 138.169 281.696 138 282.035C137.831 282.374 137.601 282.667 137.324 282.895C137.048 283.122 136.732 283.278 136.398 283.353L124.705 285.956C123.061 286.609 121.259 286.486 119.694 285.614C118.129 284.742 116.928 283.192 116.356 281.304C115.783 279.415 115.886 277.343 116.64 275.541C117.394 273.74 118.739 272.355 120.38 271.692L130.879 265.32C131.18 265.138 131.511 265.032 131.851 265.011C132.19 264.989 132.529 265.051 132.846 265.194C133.162 265.336 133.448 265.556 133.684 265.837C133.921 266.118 134.101 266.455 134.214 266.823V266.823Z" fill="#D11F3D"/>
<path d="M78.8861 235.117C78.6833 235.357 78.4643 235.578 78.2312 235.778L79.5864 265.709L85.2236 269.027L81.9799 279.463L71.504 274.704C70.6577 274.319 69.9427 273.63 69.4664 272.738C68.99 271.847 68.778 270.802 68.8623 269.76L71.6067 235.808C70.7087 235.037 70.0359 233.971 69.6778 232.75C69.3198 231.529 69.2935 230.212 69.6025 228.974C69.9114 227.735 70.5409 226.635 71.4073 225.818C72.2737 225.001 73.3359 224.506 74.4525 224.4C75.5692 224.294 76.6875 224.582 77.6587 225.225C78.6298 225.867 79.4078 226.834 79.8891 227.998C80.3704 229.161 80.5322 230.465 80.353 231.737C80.1739 233.009 79.6622 234.188 78.8861 235.117V235.117Z" fill="#FFB8B8"/>
<path d="M80.8478 265.194C81.1642 265.051 81.5037 264.988 81.8431 265.01C82.1825 265.032 82.5137 265.138 82.8143 265.32L93.3133 271.692C94.954 272.355 96.2991 273.74 97.0535 275.541C97.8079 277.343 97.91 279.415 97.3375 281.304C96.765 283.192 95.5645 284.742 93.9994 285.614C92.4343 286.486 90.6323 286.609 88.9885 285.956L77.2954 283.353C76.9617 283.278 76.6459 283.122 76.3694 282.895C76.0929 282.667 75.8623 282.374 75.6932 282.035C75.5242 281.696 75.4206 281.319 75.3897 280.93C75.3588 280.541 75.4012 280.149 75.514 279.78L79.4795 266.823C79.5922 266.454 79.7728 266.118 80.0089 265.837C80.2451 265.556 80.5312 265.336 80.8478 265.194Z" fill="#D11F3D"/>
<path d="M112.3 252.65C112.232 250.756 112.645 248.881 113.489 247.253C114.333 245.625 115.571 244.315 117.052 243.483C120.976 241.154 123.441 236.185 122.361 231.648C120.978 225.841 114.104 222.075 108.534 224.073C107.027 224.688 105.573 225.465 104.192 226.393L100.553 228.636C98.9983 229.531 97.4994 230.548 96.067 231.681C93.9214 233.499 92.2398 235.945 91.1977 238.766C90.1556 241.586 89.7913 244.677 90.1429 247.714C90.8595 253.618 94.2222 259.032 98.8252 262.739C100.586 264.252 102.619 265.291 104.775 265.78C106.981 266.198 109.437 265.723 111.051 264.145C113.572 261.68 113.311 257.551 112.496 254.103C112.388 253.627 112.322 253.14 112.3 252.65V252.65Z" fill="#2F2E41"/>
</g>
<defs>
<clipPath id="clip0">
<rect width="229.9" height="470" fill="white"/>
</clipPath>
</defs>
</svg>
